<svg height="511pt" viewBox="1 0 511.99984 511" width="511pt" xmlns="http://www.w3.org/2000/svg"><path d="m319.660156 228.851562c7.835938 7.914063 9.664063 19.984376 4.519532 29.863282l-69.800782 158.636718-12.972656 14.933594c-3.144531 3.609375-6.695312 6.84375-10.578125 9.640625l6.484375-7.507812 69.800781-158.636719c4.167969-7.886719 3.894531-17.378906-.71875-25.015625-4.613281-7.632813-12.886719-12.292969-21.808593-12.273437-6.75-.023438-13.234376 2.648437-18.003907 7.425781 9.902344-9.953125 9.878907-26.039063-.046875-35.96875-9.925781-9.925781-26.011718-9.945313-35.964844-.042969l17.066407-17.066406c9.953125-9.902344 26.039062-9.882813 35.964843.042968 9.925782 9.929688 9.949219 26.015626.046876 35.96875 9.960937-9.902343 26.046874-9.902343 36.011718 0zm0 0" fill="#bfa885"/><path d="m345.085938 84.808594c-.003907 6.742187-2.671876 13.214844-7.421876 18.003906l-17.066406 17.066406c4.949219-5.035156 3.667969-1.960937 3.667969-8.449218 0-6.484376-12.117187-3.496094-17.066406-8.53125-9.984375-9.984376-12.714844-29.015626-22.613281-19.03125l17.066406-17.066407c7.273437-7.292969 18.230468-9.476562 27.746094-5.535156 9.515624 3.945313 15.710937 13.242187 15.6875 23.542969zm0 0" fill="#bfa885"/><path d="m230.570312 209.90625c9.953126-9.902344 26.039063-9.882812 35.964844.042969 9.925782 9.929687 9.949219 26.015625.046875 35.96875 9.960938-9.902344 26.046875-9.902344 36.011719 0 7.835938 7.914062 9.664062 19.984375 4.519531 29.863281l-69.800781 158.636719-6.484375 7.507812c-17.007813 12.128907-39.125 14.460938-58.285156 6.144531l-17.066407 17.066407-33.960937 33.878906c-6.644531 6.570313-17.335937 6.570313-23.980469 0l-84.050781-84.054687c-6.570313-6.640626-6.570313-17.335938 0-23.976563l48.039063-48.042969 14.933593-104.277344c1.886719-13.242187 11.378907-24.136718 24.238281-27.820312l80.894532-23.976562 102.996094-103c9.898437-9.984376 12.628906.511718 22.613281 10.496093 4.949219 5.035157 17.066406 10.582031 17.066406 17.066407 0 6.488281 1.28125 3.414062-3.667969 8.449218zm0 0" fill="#ffe0b2"/><path d="m503.464844 375.964844c.011718 68.996094-54.671875 125.585937-123.628906 127.941406-68.957032 2.355469-127.375-50.371094-132.070313-119.210938-4.699219-68.835937 46.007813-129.011718 114.644531-136.046874 4.265625-.429688 8.617188-.683594 13.054688-.683594 70.691406.003906 128 57.308594 128 128zm0 0" fill="#0377bc"/><path d="m477.867188 375.964844c-.003907 65.757812-49.851563 120.808594-115.285157 127.316406-65.332031-6.597656-115.070312-61.574219-115.113281-127.238281-.046875-65.667969 49.617188-120.710938 114.941406-127.394531 65.511719 6.40625 115.464844 61.492187 115.457032 127.316406zm0 0" fill="#02a9f4"/><path d="m361.957031 217.140625c-.207031 0-.414062 0-.625-.003906-11.433593-.164063-22.351562-4.804688-30.398437-12.929688-14.824219-14.816406-24.015625-65.878906-25.707032-75.96875-.457031-2.71875.429688-5.492187 2.378907-7.441406 1.953125-1.953125 4.722656-2.839844 7.445312-2.386719 10.089844 1.691406 61.148438 10.886719 75.964844 25.707032 8.125 8.054687 12.765625 18.972656 12.933594 30.410156.210937 11.257812-4.125 22.121094-12.027344 30.140625-7.902344 8.023437-18.703125 12.515625-29.964844 12.472656zm-37.617187-79.617187c4.492187 21.742187 11.917968 47.875 18.660156 54.617187 4.914062 4.972656 11.582031 7.820313 18.574219 7.933594 6.757812.148437 13.28125-2.46875 18.058593-7.246094 4.78125-4.78125 7.398438-11.304687 7.25-18.058594-.109374-6.996093-2.957031-13.667969-7.933593-18.585937-6.75-6.75-32.875-14.167969-54.609375-18.660156zm0 0" fill="#7f6e5d"/><path d="m277.625 99.34375c-.472656 0-.941406-.039062-1.40625-.117188-10.09375-1.691406-61.160156-10.886718-75.976562-25.707031-16.941407-16.605469-17.246094-43.789062-.683594-60.773437 8.097656-7.945313 19.019531-12.351563 30.367187-12.246094 11.4375.164062 22.355469 4.808594 30.40625 12.929688 14.824219 14.820312 24.019531 65.882812 25.710938 75.96875.414062 2.476562-.28125 5.007812-1.90625 6.921874-1.621094 1.917969-4 3.023438-6.511719 3.023438zm-48.316406-81.78125c-6.628906-.042969-12.996094 2.566406-17.683594 7.25-9.902344 10.316406-9.597656 26.699219.683594 36.640625 6.75 6.753906 32.882812 14.167969 54.617187 18.660156-4.492187-21.738281-11.917969-47.871093-18.660156-54.617187-4.917969-4.972656-11.589844-7.820313-18.582031-7.925782zm0 0" fill="#7f6e5d"/><path d="m301.632812 140.320312c-6.765624.011719-13.257812-2.671874-18.042968-7.457031l-12-12.007812c-4.785156-4.785157-7.472656-11.273438-7.472656-18.042969 0-6.765625 2.6875-13.253906 7.472656-18.039062 10.097656-9.628907 25.980468-9.628907 36.078125 0l12.007812 12.007812c7.300781 7.292969 9.484375 18.265625 5.535157 27.800781-3.949219 9.53125-13.257813 15.746094-23.578126 15.734375zm-12.007812-45.949218c-3.414062.003906-6.492188 2.0625-7.800781 5.214844-1.304688 3.15625-.582031 6.789062 1.832031 9.203124l12 12.003907c3.300781 3.296875 8.648438 3.296875 11.949219-.003907 3.296875-3.300781 3.292969-8.648437-.003907-11.945312l-12-12c-1.582031-1.589844-3.734374-2.476562-5.976562-2.472656zm0 0" fill="#7f6e5d"/><g fill="#5e5f62"><path d="m375.464844 367.429688c-2.261719 0-4.433594-.898438-6.03125-2.496094-1.601563-1.601563-2.5-3.773438-2.5-6.035156v-61.707032c0-4.710937 3.820312-8.53125 8.53125-8.53125 4.714844 0 8.535156 3.820313 8.535156 8.53125v61.707032c0 2.261718-.898438 4.433593-2.5 6.035156-1.597656 1.597656-3.769531 2.496094-6.035156 2.496094zm0 0"/><path d="m444.390625 384.496094h-51.859375c-4.710938 0-8.53125-3.820313-8.53125-8.53125 0-4.714844 3.820312-8.535156 8.53125-8.535156h51.859375c4.714844 0 8.535156 3.820312 8.535156 8.535156 0 4.710937-3.820312 8.53125-8.535156 8.53125zm0 0"/><path d="m375.464844 266.34375c-2.261719 0-4.433594-.898438-6.03125-2.5-1.601563-1.597656-2.5-3.769531-2.5-6.035156v-9.84375c0-4.714844 3.820312-8.535156 8.53125-8.535156 4.714844 0 8.535156 3.820312 8.535156 8.535156v9.84375c0 2.265625-.898438 4.4375-2.5 6.035156-1.597656 1.601562-3.769531 2.5-6.035156 2.5zm0 0"/><path d="m375.464844 512.496094c-2.261719.003906-4.433594-.898438-6.03125-2.496094-1.601563-1.601562-2.5-3.773438-2.5-6.035156v-9.847656c0-4.710938 3.820312-8.53125 8.53125-8.53125 4.714844 0 8.535156 3.820312 8.535156 8.53125v9.847656c0 2.261718-.898438 4.433594-2.5 6.035156-1.597656 1.597656-3.769531 2.5-6.035156 2.496094zm0 0"/><path d="m316.398438 282.171875c-3.050782.003906-5.871094-1.621094-7.398438-4.265625l-4.925781-8.523438c-2.351563-4.082031-.953125-9.300781 3.128906-11.65625 4.078125-2.355468 9.296875-.957031 11.65625 3.121094l4.921875 8.523438c1.523438 2.640625 1.523438 5.890625 0 8.53125-1.523438 2.636718-4.335938 4.265625-7.382812 4.269531zm0 0"/><path d="m439.476562 495.347656c-3.054687.003906-5.875-1.625-7.402343-4.265625l-4.925781-8.527343c-2.351563-4.082032-.953126-9.296876 3.128906-11.652344 4.082031-2.355469 9.296875-.960938 11.65625 3.121094l4.925781 8.523437c1.519531 2.640625 1.519531 5.890625-.003906 8.527344-1.519531 2.640625-4.335938 4.269531-7.378907 4.273437zm0 0"/><path d="m273.132812 325.421875c-1.496093.003906-2.964843-.394531-4.257812-1.144531l-8.523438-4.925782c-2.652343-1.519531-4.285156-4.339843-4.289062-7.394531 0-3.050781 1.628906-5.875 4.273438-7.398437 2.648437-1.523438 5.90625-1.515625 8.546874.019531l8.527344 4.921875c3.34375 1.933594 4.976563 5.871094 3.972656 9.605469-1 3.730469-4.386718 6.324219-8.25 6.316406zm0 0"/><path d="m486.308594 448.496094c-1.496094.003906-2.964844-.390625-4.257813-1.144532l-8.527343-4.925781c-2.648438-1.519531-4.28125-4.339843-4.285157-7.390625-.003906-3.054687 1.628907-5.878906 4.273438-7.402344 2.648437-1.523437 5.90625-1.515624 8.546875.019532l8.523437 4.925781c3.347657 1.929687 4.980469 5.867187 3.976563 9.601563-1 3.730468-4.386719 6.324218-8.25 6.316406zm0 0"/><path d="m503.464844 384.496094h-9.847656c-4.714844 0-8.535157-3.820313-8.535157-8.53125 0-4.714844 3.820313-8.535156 8.535157-8.535156h9.847656c4.714844 0 8.535156 3.820312 8.535156 8.535156 0 4.710937-3.820312 8.53125-8.535156 8.53125zm0 0"/><path d="m257.316406 384.496094h-9.851562c-4.710938 0-8.53125-3.820313-8.53125-8.53125 0-4.714844 3.820312-8.535156 8.53125-8.535156h9.851562c4.714844 0 8.535156 3.820312 8.535156 8.535156 0 4.710937-3.820312 8.53125-8.535156 8.53125zm0 0"/><path d="m264.625 448.496094c-3.863281.007812-7.25-2.585938-8.25-6.316406-1.003906-3.734376.628906-7.671876 3.976562-9.601563l8.523438-4.925781c2.640625-1.535156 5.898438-1.542969 8.546875-.019532 2.644531 1.523438 4.273437 4.347657 4.273437 7.402344-.003906 3.050782-1.636718 5.871094-4.289062 7.390625l-8.523438 4.925781c-1.292968.753907-2.761718 1.148438-4.257812 1.144532zm0 0"/><path d="m477.800781 325.421875c-3.863281.007813-7.25-2.585937-8.25-6.316406-1.003906-3.734375.628907-7.671875 3.972657-9.605469l8.527343-4.921875c2.636719-1.535156 5.898438-1.542969 8.542969-.019531 2.648438 1.523437 4.277344 4.347656 4.277344 7.398437-.003906 3.054688-1.640625 5.875-4.289063 7.394531l-8.523437 4.925782c-1.292969.75-2.761719 1.148437-4.257813 1.144531zm0 0"/><path d="m311.457031 495.347656c-3.046875-.003906-5.859375-1.632812-7.378906-4.273437-1.523437-2.636719-1.523437-5.886719-.003906-8.527344l4.925781-8.523437c2.355469-4.082032 7.574219-5.476563 11.65625-3.121094 4.082031 2.355468 5.480469 7.570312 3.125 11.652344l-4.921875 8.527343c-1.527344 2.640625-4.347656 4.269531-7.402344 4.265625zm0 0"/><path d="m434.535156 282.171875c-3.046875-.003906-5.859375-1.632813-7.382812-4.269531-1.523438-2.640625-1.523438-5.890625-.003906-8.53125l4.925781-8.523438c2.359375-4.078125 7.574219-5.476562 11.65625-3.121094 4.082031 2.355469 5.480469 7.574219 3.128906 11.65625l-4.925781 8.523438c-1.527344 2.644531-4.347656 4.269531-7.398438 4.265625zm0 0"/></g><path d="m375.464844 512.496094c-75.402344 0-136.53125-61.125-136.53125-136.53125s61.128906-136.535156 136.53125-136.535156c75.40625 0 136.535156 61.128906 136.535156 136.535156-.085938 75.367187-61.164062 136.445312-136.535156 136.53125zm0-256c-65.976563 0-119.464844 53.488281-119.464844 119.46875 0 65.980468 53.488281 119.464844 119.464844 119.464844 65.980468 0 119.46875-53.484376 119.46875-119.464844-.074219-65.949219-53.519532-119.394532-119.46875-119.46875zm0 0" fill="#2c2f38"/><path d="m392.53125 375.964844c0 9.425781-7.640625 17.066406-17.066406 17.066406-9.425782 0-17.066406-7.640625-17.066406-17.066406 0-9.425782 7.640624-17.066406 17.066406-17.066406 9.425781 0 17.066406 7.640624 17.066406 17.066406zm0 0" fill="#424242"/><path d="m444.390625 367.429688h-44.898437c-2.574219-7.226563-8.265626-12.914063-15.492188-15.492188v-54.746094c0-4.710937-3.820312-8.53125-8.535156-8.53125-4.710938 0-8.53125 3.820313-8.53125 8.53125v54.746094c-11.230469 3.949219-18.242188 15.132812-16.90625 26.960938 1.339844 11.828124 10.675781 21.164062 22.503906 22.503906s23.011719-5.675782 26.960938-16.90625h44.898437c4.714844 0 8.535156-3.820313 8.535156-8.53125 0-4.714844-3.820312-8.535156-8.535156-8.535156zm-68.925781 17.066406c-4.710938 0-8.53125-3.820313-8.53125-8.53125 0-4.714844 3.820312-8.535156 8.53125-8.535156 4.714844 0 8.535156 3.820312 8.535156 8.535156-.003906 4.710937-3.824219 8.527344-8.535156 8.53125zm0 0"/><path d="m493.707031 307.699219c-.179687-.234375-.378906-.457031-.585937-.664063-11.839844-20.121094-28.613282-36.894531-48.734375-48.730468-.207031-.207032-.425781-.398438-.652344-.578126-.210937-.121093-.449219-.121093-.664063-.222656-32.617187-18.761718-71.5625-23.140625-107.53125-12.085937-.675781-18.207031-15.671874-32.597657-33.890624-32.523438-.765626 0-1.496094.167969-2.25.21875.046874-.753906.21875-1.484375.21875-2.25.027343-9.023437-3.5625-17.679687-9.960938-24.039062-4.285156-4.1875-9.640625-7.117188-15.476562-8.46875l34.109374-34.113281c4.109376 19.417968 11.882813 49.210937 22.644532 59.964843 8.046875 8.125 18.964844 12.769531 30.398437 12.929688.207031.003906.417969.003906.625.003906 11.257813.042969 22.0625-4.449219 29.964844-12.46875s12.238281-18.886719 12.027344-30.144531c-.167969-11.4375-4.8125-22.355469-12.933594-30.410156-10.753906-10.753907-40.542969-18.53125-59.960937-22.640626l12.628906-12.628906c13.253906-13.285156 13.253906-34.792968 0-48.078125-13.453125-12.851562-34.632813-12.851562-48.082032 0l-12.625 12.621094c-4.113281-19.414063-11.886718-49.203125-22.644531-59.960937-8.050781-8.121094-18.96875-12.765626-30.40625-12.929688-11.347656-.105469-22.269531 4.300781-30.367187 12.246094-16.5625 16.984375-16.257813 44.167968.683594 60.773437 10.753906 10.753907 40.546874 18.53125 59.964843 22.640625l-83.121093 83.121094-78.71875 23.332031c-16.109376 4.613281-28.011719 18.253907-30.390626 34.84375l-14.5 101.445313-46 46.003906c-4.789062 4.785156-7.476562 11.273438-7.476562 18.042969 0 6.765625 2.6875 13.253906 7.476562 18.039062l84.03125 84.042969c9.964844 9.957031 26.113282 9.957031 36.074219-.003906l47.066407-47.0625c26.210937 8.945312 55.226562.984375 73.203124-20.082032l3.910157-4.507812c1.621093 3.472656 3.34375 6.875 5.234375 10.183594.105468.21875.105468.457031.230468.671875.25.390625.539063.761719.851563 1.105469 11.824219 19.925781 28.496094 36.539062 48.46875 48.289062.207031.203125.425781.398438.652344.578125.300781.144531.605469.273437.921875.378906 41.71875 23.886719 92.972656 23.886719 134.691406 0 .3125-.105469.621094-.234375.921875-.378906.226563-.179687.445313-.375.652344-.578125 19.972656-11.75 36.644531-28.363281 48.46875-48.289062.3125-.34375.597656-.714844.851562-1.105469.125-.214844.125-.453125.226563-.671875 24.085937-41.84375 24.085937-93.34375 0-135.1875-.101563-.21875-.101563-.460938-.226563-.671875zm-114.757812-151.515625c4.976562 4.917968 7.824219 11.589844 7.933593 18.585937.148438 6.753907-2.46875 13.277344-7.25 18.058594-4.777343 4.777344-11.300781 7.394531-18.058593 7.246094-6.992188-.113281-13.660157-2.960938-18.574219-7.933594-6.742188-6.742187-14.167969-32.875-18.660156-54.617187 21.734375 4.492187 47.859375 11.910156 54.609375 18.660156zm-71.28125-83.347656c6.703125-6.390626 17.246093-6.390626 23.949219 0 6.597656 6.617187 6.597656 17.328124 0 23.945312l-7.070313 7.066406c-1.207031-2.617187-2.855469-5.007812-4.871094-7.066406l-12.007812-12.007812c-2.074219-2.015626-4.492188-3.640626-7.140625-4.800782zm-24.011719 24.007812c3.300781-3.292969 8.644531-3.292969 11.945312 0l12 12c2.132813 2.132812 2.96875 5.242188 2.1875 8.15625-.78125 2.917969-3.054687 5.195312-5.972656 5.976562-2.914062.78125-6.023437-.050781-8.160156-2.183593l-12-12.003907c-1.582031-1.582031-2.472656-3.730468-2.472656-5.972656 0-2.242187.890625-4.390625 2.472656-5.972656zm-71.347656-35.390625c-10.28125-9.941406-10.585938-26.324219-.683594-36.640625 4.6875-4.683594 11.054688-7.292969 17.683594-7.25l.375.007812c6.992187.105469 13.664062 2.953126 18.582031 7.925782 6.742187 6.746094 14.167969 32.878906 18.660156 54.617187-21.734375-4.492187-47.867187-11.90625-54.617187-18.660156zm26.625 314.511719c.003906 13.355468 1.976562 26.632812 5.851562 39.414062l-9.828125 11.320313c-14.554687 16.988281-38.496093 22.488281-59.007812 13.546875l-.050781-.007813c-3.203126-1.40625-6.9375-.707031-9.414063 1.757813l-50.96875 50.964844c-3.34375 3.183593-8.597656 3.183593-11.941406 0l-84.03125-84.039063c-1.585938-1.582031-2.476563-3.730469-2.476563-5.972656 0-2.238281.890625-4.386719 2.476563-5.972657l48.015625-48.019531c.171875-.234375.335937-.476562.480468-.726562.445313-.515625.824219-1.085938 1.128907-1.699219.269531-.800781.539062-1.601562.808593-2.398438l14.898438-104.265624c1.433594-9.949219 8.585938-18.125 18.257812-20.863282l48.648438-14.417968-30.257812 30.257812c-2.152344 2.15625-2.996094 5.296875-2.207032 8.242188.789063 2.945312 3.089844 5.246093 6.035156 6.035156 2.941407.785156 6.085938-.054688 8.238282-2.210938l133.109375-133.105468c1.21875 2.609374 2.871093 4.996093 4.890625 7.050781l12 12.007812c2.0625 2.019531 4.453125 3.667969 7.070312 4.875l-49.070312 49.074219-.015625.011719-48.015625 48.019531c-3.332032 3.332031-3.332032 8.734375 0 12.066406 3.332031 3.332032 8.734375 3.332032 12.066406 0l48.03125-48.03125c6.703125-6.378906 17.234375-6.375 23.933594.011719 6.613281 6.613281 6.613281 17.335937 0 23.949219l-48.015625 48.019531c-2.15625 2.15625-2.996094 5.296875-2.207031 8.242187.789062 2.945313 3.085937 5.246094 6.03125 6.035157 2.945312.789062 6.085937-.054688 8.242187-2.210938l48.042969-48.039062c6.707031-6.328125 17.179687-6.34375 23.90625-.035157 4.554687 4.707032 6.011718 11.609376 3.75 17.753907-3.226563 1.527343-6.394532 3.128906-9.476563 4.894531-.214843.105469-.453125.105469-.664062.226562-.230469.179688-.445313.371094-.65625.578126-20.117188 11.835937-36.886719 28.601562-48.726563 48.71875-.210937.214843-.40625.4375-.589844.675781-.125.210937-.125.453125-.230468.671875-11.832032 20.5625-18.058594 43.871094-18.0625 67.59375zm254.683594 8.53125h.882812c-1.070312 15.144531-5.039062 29.941406-11.699219 43.585937l-.742187-.429687c-2.640625-1.535156-5.898438-1.542969-8.546875-.019532-2.644531 1.523438-4.277344 4.347657-4.273438 7.402344.003907 3.050782 1.636719 5.871094 4.285157 7.390625l.832031.480469c-8.535157 12.570312-19.375 23.410156-31.941407 31.945312l-.480468-.828124c-2.359375-4.082032-7.574219-5.476563-11.65625-3.121094-4.082032 2.355468-5.480469 7.570312-3.128906 11.652344l.429687.746093c-13.640625 6.65625-28.4375 10.628907-43.578125 11.699219v-.882812c0-4.710938-3.820312-8.53125-8.535156-8.53125-4.710938 0-8.53125 3.820312-8.53125 8.53125v.882812c-15.140625-1.070312-29.9375-5.042969-43.578125-11.699219l.425781-.746093c2.355469-4.082032.957031-9.296876-3.125-11.652344-4.082031-2.355469-9.296875-.960938-11.65625 3.121094l-.480469.828124c-12.566406-8.535156-23.40625-19.375-31.945312-31.945312l.832031-.480469c2.652344-1.519531 4.285156-4.339843 4.289062-7.390625.003907-3.054687-1.628906-5.878906-4.273437-7.402344-2.648437-1.523437-5.90625-1.515624-8.546875.019532l-.742188.429687c-6.660156-13.644531-10.632812-28.441406-11.699218-43.585937h.882812c4.714844 0 8.535156-3.820313 8.535156-8.53125 0-4.714844-3.820312-8.535156-8.535156-8.535156h-.882812c1.066406-15.140626 5.039062-29.9375 11.699218-43.582032l.742188.429688c1.292969.75 2.761719 1.148437 4.257812 1.144531 3.863282.007813 7.25-2.585937 8.25-6.316406 1.003907-3.734375-.628906-7.671875-3.976562-9.605469l-.832031-.480469c8.539062-12.566406 19.378906-23.40625 31.945312-31.945312l.480469.832031c1.527344 2.644531 4.347656 4.269531 7.398438 4.265625 3.046874-.003906 5.859374-1.632813 7.382812-4.269531 1.523438-2.640625 1.523438-5.890625 0-8.53125l-.425781-.742188c13.640625-6.65625 28.4375-10.628906 43.578125-11.699218v.878906c0 4.714844 3.820312 8.535156 8.53125 8.535156 4.714844 0 8.535156-3.820312 8.535156-8.535156v-.878906c15.140625 1.070312 29.9375 5.042968 43.578125 11.699218l-.429687.742188c-2.351563 4.082031-.953126 9.300781 3.128906 11.65625 4.082031 2.355468 9.296875.957031 11.65625-3.121094l.480468-.832031c12.566407 8.539062 23.40625 19.378906 31.941407 31.945312l-.832031.484375c-2.648438 1.519532-4.28125 4.335938-4.285157 7.390625-.003906 3.054688 1.628907 5.878907 4.273438 7.402344 2.648437 1.523437 5.90625 1.515625 8.546875-.019531l.742187-.429688c6.65625 13.644532 10.628907 28.441406 11.699219 43.582032h-.882812c-4.714844 0-8.535157 3.820312-8.535157 8.535156 0 4.710937 3.820313 8.53125 8.535157 8.53125zm0 0"/></svg>